<svg xmlns="http://www.w3.org/2000/svg" xmlns:xlink="http://www.w3.org/1999/xlink" viewBox="0 0 500 500"><defs><clipPath id="freepik--clip-path--inject-76"><path d="M105.58,325.59S86,338.83,80.38,344.94s-2.54,10.94-2,15.53,2.8,14.76,9.41,18.32,88.84,2,136.7,3.57S375.23,382.07,388,379s15.75-18.84,16.51-27.75-8.37-21.38-13.46-22.9-47.43-1.75-94.52-.73-68.67,5.12-122.38,4.1S117.8,323.3,105.58,325.59Z" style="fill:#b2b2b2;stroke:#263238;stroke-linecap:round;stroke-linejoin:round"></path></clipPath><clipPath id="freepik--clip-path-2--inject-76"><path d="M198.22,209.47s7.89-2.63,9.1-7.28-3.23-20.24-16.59-25.71-35.22-1.62-42.71,6.89.41,16.39.61,18.21-5.87,3-6.88,10.73,8.91,15.58,19.63,18,16-.61,16-4.66-2.43-7.69,2.23-10.72,9.91-8.7,12.14-8.5S198.22,209.47,198.22,209.47Z" style="fill:#263238;stroke:#263238;stroke-linecap:round;stroke-linejoin:round"></path></clipPath></defs><g id="freepik--background-simple--inject-76"><path d="M459.27,260.05s-3,78.38-68.69,129.32-156.19,52.85-229.49,56.32S31.78,406.44,23.71,343.42s48-80.33,78.88-151.25S130.88,97.67,195.44,55,360.37,41.35,412.6,117.81,459.27,260.05,459.27,260.05Z" style="fill:#90CAF9"></path><path d="M459.27,260.05s-3,78.38-68.69,129.32-156.19,52.85-229.49,56.32S31.78,406.44,23.71,343.42s48-80.33,78.88-151.25S130.88,97.67,195.44,55,360.37,41.35,412.6,117.81,459.27,260.05,459.27,260.05Z" style="fill:#fff;opacity:0.7000000000000001"></path></g><g id="freepik--Floor--inject-76"><ellipse cx="251.02" cy="428.72" rx="229.97" ry="45.87" style="fill:#90CAF9"></ellipse><ellipse cx="251.02" cy="428.72" rx="229.97" ry="45.87" style="fill:#fff;opacity:0.5"></ellipse></g><g id="freepik--Window--inject-76"><path d="M346.09,40.86h4.37a62,62,0,0,1,62,62v233a0,0,0,0,1,0,0H284.09a0,0,0,0,1,0,0v-233A62,62,0,0,1,346.09,40.86Z" style="fill:none;stroke:#263238;stroke-linecap:round;stroke-linejoin:round"></path><path d="M298.58,335.2V107.11a49.69,49.69,0,0,1,49.69-49.69h0A49.69,49.69,0,0,1,398,107.11V335.2" style="fill:none;stroke:#263238;stroke-linecap:round;stroke-linejoin:round"></path><line x1="348.27" y1="40.86" x2="348.27" y2="335.54" style="fill:none;stroke:#263238;stroke-linecap:round;stroke-linejoin:round"></line><line x1="284.78" y1="97.62" x2="411.59" y2="97.62" style="fill:none;stroke:#263238;stroke-linecap:round;stroke-linejoin:round"></line><line x1="284.78" y1="137.65" x2="411.59" y2="137.65" style="fill:none;stroke:#263238;stroke-linecap:round;stroke-linejoin:round"></line><line x1="284.78" y1="177.68" x2="411.59" y2="177.68" style="fill:none;stroke:#263238;stroke-linecap:round;stroke-linejoin:round"></line><line x1="284.78" y1="217.7" x2="411.59" y2="217.7" style="fill:none;stroke:#263238;stroke-linecap:round;stroke-linejoin:round"></line><line x1="284.78" y1="257.73" x2="411.59" y2="257.73" style="fill:none;stroke:#263238;stroke-linecap:round;stroke-linejoin:round"></line><line x1="284.78" y1="297.76" x2="411.59" y2="297.76" style="fill:none;stroke:#263238;stroke-linecap:round;stroke-linejoin:round"></line><line x1="301.73" y1="60.89" x2="313.23" y2="71.36" style="fill:none;stroke:#263238;stroke-linecap:round;stroke-linejoin:round"></line><line x1="394.32" y1="60.89" x2="382.82" y2="71.36" style="fill:none;stroke:#263238;stroke-linecap:round;stroke-linejoin:round"></line><path d="M444.4,387.15s22.93-40.48,28.27-59.15S457.92,324,457.92,324s23.85-39.41,25.7-65.34-25.51,6.2-25.51,6.2,9.4-33.41,11.45-62.34-11-14.82-11-14.82-1.09-55.21-8.5-49.73-10.68,23.31-10.68,23.31-4.15-54.44-10.2-39.83,3.52,91.48,3.52,91.48-14.19-40.11-17.67-19.3,22.46,78.79,22.46,78.79-13.18,2.07-14.81,11S442,336.85,442,336.85s-17.39-23.29-20.52-7.48,14.48,64.19,14.48,64.19Z" style="fill:#90CAF9"></path><path d="M470.16,306.77c-3.2-11.25-11.75-3.84-11.75-3.84s18.15-57.86,10.45-62.42-14.17,16-14.17,16,9.31-88.56,4-83.93-8.39,33.49-8.39,33.49S444,125.46,437,139s1.24,95.33,1.24,95.33-13.12-41-14.39-23.08,12.56,77.08,12.56,77.08-15.68-5.12-15.32,3.92,9.42,50.8,9.42,50.8-9.69-4.7-7.34,4.49,13.41,37,13.41,37l11.76,3.84s17-27.86,10-27.36a14.35,14.35,0,0,0-10.4,5.27S473.37,318,470.16,306.77Z" style="fill:none;stroke:#263238;stroke-linecap:round;stroke-linejoin:round"></path><path d="M442.43,383.46s5.16-92.29,3-150.7" style="fill:none;stroke:#263238;stroke-linecap:round;stroke-linejoin:round"></path><polygon points="452.09 426 430.22 426 427.65 379 454.65 379 452.09 426" style="fill:#263238;stroke:#263238;stroke-linecap:round;stroke-linejoin:round"></polygon></g><g id="freepik--Picture--inject-76"><rect x="206.65" y="87.33" width="60.22" height="82.52" style="fill:none;stroke:#263238;stroke-linecap:round;stroke-linejoin:round"></rect><rect x="215.6" y="99.59" width="42.32" height="57.99" style="fill:none;stroke:#263238;stroke-linecap:round;stroke-linejoin:round"></rect></g><g id="freepik--Couch--inject-76"><path d="M393.3,335.23s5.6-14,2-43c-1.57-12.74-.45-38.91-17.87-39.76-18.59-.9-26.18.94-44.81,1.15-67.2.77-116.62,7.47-157.59,3.52-32.93-3.18-61.34-8.4-73,3.31s-10.69,36.65-9.67,41.49S101,339.85,101,339.85l290.52-1.31Z" style="fill:#999;stroke:#263238;stroke-linecap:round;stroke-linejoin:round"></path><path d="M104.82,326.87s-5.6-22.4-14.77-28.51-21.12.51-31,10.18-12.73,21.13-8.65,40.22,16,47.34,19.6,60.07,3.56,19.35,15.52,23.42,23.42,4.33,30.8-5.86,5.35-57-.51-74.58S104.82,326.87,104.82,326.87Z" style="fill:#b2b2b2;stroke:#263238;stroke-linecap:round;stroke-linejoin:round"></path><path d="M103.8,425.63C98.71,416,83.44,347,83.69,337.56s-7.38-25.2-16.8-26.48c-7.76-1-14,6.38-15.91,9-3,7.47-3.22,16.52-.63,28.66,4.07,19.09,3.56,47.93,7.12,60.66S61,428.77,73,432.84c7.87,2.68,28,3.11,34.41.6A62.43,62.43,0,0,0,103.8,425.63Z" style="fill:#8a8a8a;stroke:#263238;stroke-linecap:round;stroke-linejoin:round"></path><path d="M378,326.44s5.92-22.4,15.59-28.51,22.32.51,32.8,10.18,13.45,21.13,9.15,40.22-16.94,47.34-20.71,60.07-3.76,19.35-16.4,23.42-24.73,4.33-32.53-5.85-5.64-57,.54-74.59S378,326.44,378,326.44Z" style="fill:#b2b2b2;stroke:#263238;stroke-linecap:round;stroke-linejoin:round"></path><path d="M379.06,426.62c5.37-9.8,21.5-79.63,21.24-89.16S408.09,312,418,310.66c8.2-1.07,14.75,6.45,16.8,9.12,3.21,7.56,3.41,16.72.68,29-4.31,19.33-10.88,47.93-14.65,60.82s-3.76,19.58-16.4,23.71c-8.31,2.71-22.45,3.75-29.23,1.2A63.4,63.4,0,0,1,379.06,426.62Z" style="fill:#8a8a8a;stroke:#263238;stroke-linecap:round;stroke-linejoin:round"></path><path d="M400.43,369.85s-6.36,39.52-10.44,52.76-2.8,13.24-9.67,13.75-267.61-.22-275.76-1.49-12.47-7.39-14.76-16-4.58-47.93-4.58-47.93l304.26-1Z" style="fill:#999;stroke:#263238;stroke-linecap:round;stroke-linejoin:round"></path><path d="M85.23,377.16a8.83,8.83,0,0,0,6.84,5.37c5.38,1,143.21,2.45,147.6,2.45s116.81,0,134.9-1.47,27.29-3.86,25.86-13.66-.94-2-.94-2L82.3,371.78Z" style="fill:#263238"></path><path d="M105.58,325.59S86,338.83,80.38,344.94s-2.54,10.94-2,15.53,2.8,14.76,9.41,18.32,88.84,2,136.7,3.57S375.23,382.07,388,379s15.75-18.84,16.51-27.75-8.37-21.38-13.46-22.9-47.43-1.75-94.52-.73-68.67,5.12-122.38,4.1S117.8,323.3,105.58,325.59Z" style="fill:#b2b2b2"></path><g style="clip-path:url(#freepik--clip-path--inject-76)"><path d="M78.35,360.47c.5,4.58,2.8,14.76,9.41,18.32s88.84,2,136.7,3.57S375.23,382.07,388,379s20.36-15.27,21.12-24.18a11.58,11.58,0,0,0-.44-4c-1.8,1.79-5.25-.15-9.34-.73-9.07-1.31-104.5,4.63-175.92,4.63-77.56,0-102.83,0-141.21-7.38-5.71-1.1-1.79-2.43-1.79-2.43C74.78,351.05,77.84,355.88,78.35,360.47Z" style="fill:#999"></path></g><path d="M105.58,325.59S86,338.83,80.38,344.94s-2.54,10.94-2,15.53,2.8,14.76,9.41,18.32,88.84,2,136.7,3.57S375.23,382.07,388,379s15.75-18.84,16.51-27.75-8.37-21.38-13.46-22.9-47.43-1.75-94.52-.73-68.67,5.12-122.38,4.1S117.8,323.3,105.58,325.59Z" style="fill:none;stroke:#263238;stroke-linecap:round;stroke-linejoin:round"></path><path d="M244.14,258.14l-.4,72.13S240.59,350,241,352.73s.39,29.56.39,29.56" style="fill:none;stroke:#263238;stroke-linecap:round;stroke-linejoin:round"></path></g><g id="freepik--character-3--inject-76"><path d="M287.3,195a18.13,18.13,0,0,0-5.3-12.07c-5.3-5-17.07-6.18-22.66,1.47s-5.59,13.84-3.53,15.31l2.06,1.47s-2.65,5,.29,7.36,5.3,4.71,5.89,2.06-3.83-8.24,2.94-12.66S287.3,195,287.3,195Z" style="fill:#263238;stroke:#263238;stroke-linecap:round;stroke-linejoin:round"></path><path d="M284.06,188.8s8.83-7.36,13.83-1.18-5.29,14.13-6.76,15-7.36-11.18-7.36-11.18S282.3,190.27,284.06,188.8Z" style="fill:#263238;stroke:#263238;stroke-linecap:round;stroke-linejoin:round"></path><path d="M292.11,204.11s3.33-4.9,5.09-.79-2,9.8-3.72,11S292.11,204.11,292.11,204.11Z" style="fill:#fff;stroke:#263238;stroke-linecap:round;stroke-linejoin:round"></path><path d="M262.14,209s-3.14-7.24-5.29-4.11.2,11.36,4.31,11.36a9.41,9.41,0,0,0,1.17-2.74" style="fill:#fff;stroke:#263238;stroke-linecap:round;stroke-linejoin:round"></path><path d="M309.85,280c-3.43-9.06,1.57-32.79-6.24-36.54s-18.73-5-18.73-5l-9.06.33-9.06-.33s-10.93,1.25-18.74,5-2.81,27.48-6.24,36.54-6.25,20.91-5,28.41,5.62,10.3,9.06,11.24c2.36.64,19.51.4,30,.19,10.46.21,27.61.45,30-.19,3.43-.94,7.8-3.75,9.05-11.24S313.29,289,309.85,280Z" style="fill:#90CAF9;stroke:#263238;stroke-linecap:round;stroke-linejoin:round"></path><path d="M255.79,283.12s21.83-10.76,39.17-3" style="fill:none;stroke:#263238;stroke-linecap:round;stroke-linejoin:round"></path><path d="M269.85,272.66s10.46-1.5,17.64,2.39" style="fill:none;stroke:#263238;stroke-linecap:round;stroke-linejoin:round"></path><path d="M271,232.7s-6.07,2-7.05,4.71-2.94,10.18-2.74,13.51,2.15,5.09,3.13,3.53,10.38-5.68,11.56-6.27,8.42,1.57,9.79,3.13,5.29,5.88,5.88,4.31,0-8.62-2-14.88-3.72-7.25-7.25-8.23S271,232.7,271,232.7Z" style="fill:#fff;stroke:#263238;stroke-linecap:round;stroke-linejoin:round"></path><path d="M268.8,232.31s.39,9.8,2,14.89,5.87,11.95,7.83,11,4.12-10,5.09-13.71a87.74,87.74,0,0,0,1.57-11.17S271.34,234.27,268.8,232.31Z" style="fill:#fff;stroke:#263238;stroke-linecap:round;stroke-linejoin:round"></path><path d="M285.25,233.29s-13.91,1-16.45-1c0,0,.11,2.67.43,5.95a30.61,30.61,0,0,0,14.44,1.06c.34-.07.65-.16,1-.24C285,236.07,285.25,233.29,285.25,233.29Z" style="fill:#263238;stroke:#263238;stroke-linecap:round;stroke-linejoin:round"></path><path d="M261.89,199.29s-3.33,26.33,0,30.87,14.82,7,21.78,5.44,10.29-6,10.6-14.83-2.12-23.3-5.15-25.41-10.59-4.85-17.25-2.73S262.79,196.87,261.89,199.29Z" style="fill:#fff;stroke:#263238;stroke-linecap:round;stroke-linejoin:round"></path><path d="M271.88,191s-2,7.58-6.78,10-3.59-4-2.39-7.58" style="fill:#263238;stroke:#263238;stroke-linecap:round;stroke-linejoin:round"></path><path d="M269.1,208.72s3.41-3,6-.4" style="fill:none;stroke:#263238;stroke-linecap:round;stroke-linejoin:round"></path><path d="M282.17,208.11s2.81-3.82,5.83.21" style="fill:none;stroke:#263238;stroke-linecap:round;stroke-linejoin:round"></path><path d="M280.16,203.13l1.17,12.93s-3.52,1.76-5.09-1.57" style="fill:#fff;stroke:#263238;stroke-linecap:round;stroke-linejoin:round"></path><path d="M268.6,203.13a9.84,9.84,0,0,1,7-1.57" style="fill:none;stroke:#263238;stroke-linecap:round;stroke-linejoin:round"></path><path d="M280.55,201.76a6.34,6.34,0,0,1,6.66-.2" style="fill:none;stroke:#263238;stroke-linecap:round;stroke-linejoin:round"></path><path d="M277.42,215.86s-8.11,1.54-7.52,2.91,3.08,3,5.43,2.82,4.05-3,4.05-3,3.79,5.6,8.82.77c1.61-1.54-6.87-3.31-6.87-3.31S278.59,217.23,277.42,215.86Z" style="fill:#263238"></path><path d="M309.31,311.93s-.6-5.27-19.43-9.61S257.29,302,251,306.66s-10.17,7.75-12.56,16.12-3,24.79,15.85,29.13,48.73,3.69,57.4-4.81C325.68,333.4,312,315,309.31,311.93Z" style="fill:#263238;stroke:#263238;stroke-linecap:round;stroke-linejoin:round"></path><path d="M288.79,308.74s-5.82-.54-7.49-.91-7.43,2.79-10.59,4.46a12.39,12.39,0,0,0-5.21,6.32c0,.56-.55,3.34.38,3.72s5.57-.75,6.87-.75,8.55-2.23,10.41-2,8.57-3.58,8.57-3.58Z" style="fill:#fff;stroke:#263238;stroke-linecap:round;stroke-linejoin:round"></path><path d="M281.12,316.75s-5.21.56-6.51,1.67a33.45,33.45,0,0,1-4.46,2.79" style="fill:none;stroke:#263238;stroke-linecap:round;stroke-linejoin:round"></path><path d="M278.89,314a34.36,34.36,0,0,0-6.51,2.6,39.51,39.51,0,0,0-5.39,5" style="fill:none;stroke:#263238;stroke-linecap:round;stroke-linejoin:round"></path><path d="M277.77,311.55s-7.25,2.6-8.55,3.53a37.72,37.72,0,0,0-3.72,3.53" style="fill:none;stroke:#263238;stroke-linecap:round;stroke-linejoin:round"></path><path d="M303.38,242.21s9.06,1.56,13.43,6.24,9.68,28.41,12.18,37.47,3.75,22.66,2.5,25.47S324.65,316,320,316s-29.08.53-29.08.53l-3.43-7.5L312,297.62l-6.16-35.74" style="fill:#90CAF9;stroke:#263238;stroke-linecap:round;stroke-linejoin:round"></path><path d="M251.77,242.21s-9.06,1.56-13.43,6.24-9.68,28.41-12.17,37.47-3.93,20.58-2.68,23.39,7.81,7.18,12.49,7.18,27.5-.53,27.5-.53l2.94-7.22L243.48,296.2l5.79-34.32" style="fill:#90CAF9;stroke:#263238;stroke-linecap:round;stroke-linejoin:round"></path><path d="M266.42,308.74s5.81-.54,7.48-.91,7.44,2.79,10.6,4.46a12.35,12.35,0,0,1,5.2,6.32c0,.56.56,3.34-.37,3.72s-5.58-.75-6.88-.75-8.55-2.23-10.41-2-8.56-3.58-8.56-3.58Z" style="fill:#fff;stroke:#263238;stroke-linecap:round;stroke-linejoin:round"></path><path d="M274.09,316.75s5.2.56,6.5,1.67a34.13,34.13,0,0,0,4.46,2.79" style="fill:none;stroke:#263238;stroke-linecap:round;stroke-linejoin:round"></path><path d="M276.32,314a34.09,34.09,0,0,1,6.5,2.6,38.88,38.88,0,0,1,5.39,5" style="fill:none;stroke:#263238;stroke-linecap:round;stroke-linejoin:round"></path><path d="M277.43,311.55s7.25,2.6,8.55,3.53a37.72,37.72,0,0,1,3.72,3.53" style="fill:none;stroke:#263238;stroke-linecap:round;stroke-linejoin:round"></path><path d="M270.44,327.37s-14.95-13.75-27.5-14.05-20,8.67-19.44,22.42,14.63,105.81,14.63,105.81l14.35-.3,3.61-104.61" style="fill:#263238;stroke:#263238;stroke-linecap:round;stroke-linejoin:round"></path><path d="M238.13,441.55s-7.78,5.38-9.87,11.66,9.87,4.49,15-.59a86.37,86.37,0,0,0,9.27-11.37Z" style="fill:#fff;stroke:#263238;stroke-linecap:round;stroke-linejoin:round"></path><path d="M282.67,327.37s14.95-13.75,27.51-14.05,20,8.67,19.43,22.42-20.06,105.81-20.06,105.81l-14.35-.3L297,336.64" style="fill:#263238;stroke:#263238;stroke-linecap:round;stroke-linejoin:round"></path><path d="M309.55,441.55s7.78,5.38,9.87,11.66-9.87,4.49-14.95-.59a86.37,86.37,0,0,1-9.27-11.37Z" style="fill:#fff;stroke:#263238;stroke-linecap:round;stroke-linejoin:round"></path></g></svg>